<mxfile host="65bd71144e">
    <diagram id="6uVbfhh5oHFQHX2mAzv4" name="Page-1">
        <mxGraphModel dx="763" dy="545" grid="1" gridSize="10" guides="1" tooltips="1" connect="1" arrows="1" fold="1" page="1" pageScale="1" pageWidth="3300" pageHeight="4681" math="0" shadow="0">
            <root>
                <mxCell id="0"/>
                <mxCell id="1" parent="0"/>
                <mxCell id="2" value="&lt;div&gt;&lt;br&gt;&lt;/div&gt;&lt;ul&gt;&lt;li&gt;Infinite loop: Print prompt and wait for input using readline, parse, execute commands, start from new...&lt;/li&gt;&lt;li&gt;Safe the entire input in history.&lt;/li&gt;&lt;li&gt;Parse the input and safe it in an array of tokens (t_token struct). Token contains the type of the token and if its a command, it should contain an array of strings with command, option and argument. Or if its a buildin command, it should only contain the string of the buildin command.&lt;/li&gt;&lt;li&gt;Create a child process because there is at least one command to execute&lt;/li&gt;&lt;li&gt;Wait for child to finish&lt;/li&gt;&lt;/ul&gt;" style="rounded=0;whiteSpace=wrap;html=1;align=left;horizontal=1;verticalAlign=top;" parent="1" vertex="1">
                    <mxGeometry x="340" y="260" width="230" height="400" as="geometry"/>
                </mxCell>
                <mxCell id="5" value="&lt;ul&gt;&lt;li&gt;If the next token is a pipe, create a pipe and fork.&lt;/li&gt;&lt;li&gt;Use dup2 to redirect stdin and stdout correctly&lt;/li&gt;&lt;li&gt;Execute command using execve&lt;/li&gt;&lt;li&gt;If the first token is a buildin comand, then call the function to handle the command correctly.&lt;/li&gt;&lt;/ul&gt;" style="rounded=0;whiteSpace=wrap;html=1;align=left;verticalAlign=top;labelPosition=center;verticalLabelPosition=middle;" parent="1" vertex="1">
                    <mxGeometry x="720" y="480" width="190" height="300" as="geometry"/>
                </mxCell>
                <mxCell id="9" value="" style="shape=flexArrow;endArrow=classic;html=1;fontSize=1;entryX=0;entryY=0;entryDx=0;entryDy=0;" parent="1" target="5" edge="1">
                    <mxGeometry width="50" height="50" relative="1" as="geometry">
                        <mxPoint x="570" y="480" as="sourcePoint"/>
                        <mxPoint x="620" y="435" as="targetPoint"/>
                    </mxGeometry>
                </mxCell>
                <mxCell id="10" value="Text" style="text;html=1;strokeColor=none;fillColor=none;align=center;verticalAlign=middle;whiteSpace=wrap;rounded=0;fontSize=1;" parent="1" vertex="1">
                    <mxGeometry x="780" y="520" width="60" height="30" as="geometry"/>
                </mxCell>
                <mxCell id="13" value="Text" style="text;html=1;strokeColor=none;fillColor=none;align=center;verticalAlign=middle;whiteSpace=wrap;rounded=0;fontSize=1;" parent="1" vertex="1">
                    <mxGeometry x="780" y="520" width="60" height="30" as="geometry"/>
                </mxCell>
                <mxCell id="15" value="&lt;font style=&quot;font-size: 14px;&quot;&gt;Child process 1&lt;/font&gt;" style="text;html=1;strokeColor=none;fillColor=none;align=right;verticalAlign=middle;whiteSpace=wrap;rounded=0;fontSize=12;" parent="1" vertex="1">
                    <mxGeometry x="720" y="450" width="100" height="30" as="geometry"/>
                </mxCell>
                <mxCell id="16" value="&lt;font style=&quot;font-size: 14px;&quot;&gt;Parent process&lt;/font&gt;" style="text;html=1;strokeColor=none;fillColor=none;align=center;verticalAlign=middle;whiteSpace=wrap;rounded=0;fontSize=12;" parent="1" vertex="1">
                    <mxGeometry x="340" y="230" width="100" height="30" as="geometry"/>
                </mxCell>
                <mxCell id="17" value="" style="shape=flexArrow;endArrow=classic;html=1;fontSize=1;entryX=0;entryY=0;entryDx=0;entryDy=0;" parent="1" edge="1">
                    <mxGeometry width="50" height="50" relative="1" as="geometry">
                        <mxPoint x="910" y="510" as="sourcePoint"/>
                        <mxPoint x="1060" y="510" as="targetPoint"/>
                    </mxGeometry>
                </mxCell>
                <mxCell id="18" value="&lt;ul&gt;&lt;li&gt;If the next token is a pipe, create a pipe and fork.&lt;/li&gt;&lt;li&gt;Use dup2 to redirect stdin and stdout correctly&lt;/li&gt;&lt;li&gt;Execute command using execve&lt;/li&gt;&lt;li&gt;If the first token is a buildin comand, then call the function to handle the command correctly.&lt;/li&gt;&lt;/ul&gt;" style="rounded=0;whiteSpace=wrap;html=1;align=left;verticalAlign=top;labelPosition=center;verticalLabelPosition=middle;" parent="1" vertex="1">
                    <mxGeometry x="1060" y="510" width="190" height="300" as="geometry"/>
                </mxCell>
                <mxCell id="19" value="" style="shape=flexArrow;endArrow=classic;html=1;fontSize=1;entryX=0;entryY=0;entryDx=0;entryDy=0;" parent="1" edge="1">
                    <mxGeometry width="50" height="50" relative="1" as="geometry">
                        <mxPoint x="1250" y="518.75" as="sourcePoint"/>
                        <mxPoint x="1400" y="518.75" as="targetPoint"/>
                    </mxGeometry>
                </mxCell>
                <mxCell id="20" value="" style="shape=flexArrow;endArrow=classic;html=1;fontSize=1;entryX=0;entryY=0;entryDx=0;entryDy=0;" parent="1" edge="1">
                    <mxGeometry width="50" height="50" relative="1" as="geometry">
                        <mxPoint x="1320" y="540.38" as="sourcePoint"/>
                        <mxPoint x="1470" y="540.38" as="targetPoint"/>
                    </mxGeometry>
                </mxCell>
                <mxCell id="21" value="" style="shape=flexArrow;endArrow=classic;html=1;fontSize=1;entryX=0;entryY=0;entryDx=0;entryDy=0;" parent="1" edge="1">
                    <mxGeometry width="50" height="50" relative="1" as="geometry">
                        <mxPoint x="1390" y="562" as="sourcePoint"/>
                        <mxPoint x="1540" y="562" as="targetPoint"/>
                    </mxGeometry>
                </mxCell>
                <mxCell id="22" value="Child process 2" style="text;html=1;strokeColor=none;fillColor=none;align=center;verticalAlign=middle;whiteSpace=wrap;rounded=0;fontSize=14;" parent="1" vertex="1">
                    <mxGeometry x="1060" y="480" width="100" height="30" as="geometry"/>
                </mxCell>
            </root>
        </mxGraphModel>
    </diagram>
</mxfile>